<svg height="682pt" viewBox="-25 -21 682 682.66635" width="682pt" xmlns="http://www.w3.org/2000/svg" style="fill: white;"><path d="m90.65625 397.695312c3.507812-1.449218 5.796875-4.875 5.796875-8.671874v-331.710938c0-21.253906 17.289063-38.542969 38.542969-38.542969 21.257812 0 38.546875 17.289063 38.546875 38.542969v118.335938c0 5.1875 4.203125 9.386718 9.382812 9.386718 5.183594 0 9.386719-4.199218 9.386719-9.386718v-118.335938c0-31.601562-25.707031-57.3125-57.316406-57.3125-31.597656 0-57.3125 25.707031-57.3125 57.3125v325.597656c-78.453125 36.773438-102.03125 136.753906-49.363282 204.710938 1.847657 2.382812 4.617188 3.632812 7.421876 3.632812 7.667968 0 12.238281-8.902344 7.410156-15.132812-46.527344-60.03125-23.796875-148.933594 47.503906-178.425782zm0 0"/><path d="m192.3125 382.910156v-170.976562c0-5.179688-4.203125-9.386719-9.386719-9.386719-5.179687 0-9.382812 4.207031-9.382812 9.386719v177.089844c0 3.796874 2.289062 7.222656 5.800781 8.671874 43.601562 18.035157 71.78125 60.175782 71.78125 107.359376 0 95.078124-108.0625 148.902343-183.894531 94.308593-4.210938-3.027343-10.074219-2.070312-13.101563 2.136719-3.027344 4.203125-2.070312 10.070312 2.132813 13.097656 88.296875 63.558594 213.632812.714844 213.632812-109.542968 0-52.6875-30.242187-99.957032-77.582031-122.144532zm0 0"/><path d="m134.996094 589.898438c46.789062 0 84.851562-38.0625 84.851562-84.851563 0-38.015625-25.34375-71.132813-61.285156-81.496094v-29.308593c0-12.195313-9.921875-22.125-22.125-22.125h-2.878906c-12.199219 0-22.125 9.929687-22.125 22.125v29.308593c-35.941406 10.363281-61.285156 43.480469-61.285156 81.496094 0 46.789063 38.0625 84.851563 84.847656 84.851563zm-12.421875-149.738282c4.425781-.84375 7.628906-4.710937 7.628906-9.21875v-36.699218c0-1.816407 1.53125-3.355469 3.355469-3.355469h2.878906c1.820312 0 3.359375 1.539062 3.359375 3.355469v36.699218c0 4.507813 3.199219 8.375 7.621094 9.21875 31.09375 5.9375 53.660156 33.226563 53.660156 64.886719 0 36.4375-29.644531 66.085937-66.082031 66.085937-36.433594 0-66.078125-29.644531-66.078125-66.085937 0-31.660156 22.570312-58.949219 53.65625-64.886719zm0 0"/><path d="m27.648438 104.335938h31.886718c5.183594 0 9.382813-4.203126 9.382813-9.386719 0-5.183594-4.199219-9.382813-9.382813-9.382813h-31.886718c-5.179688 0-9.378907 4.199219-9.378907 9.382813 0 5.183593 4.199219 9.386719 9.378907 9.386719zm0 0"/><path d="m27.648438 175.679688h31.886718c5.183594 0 9.382813-4.199219 9.382813-9.386719 0-5.183594-4.199219-9.382813-9.382813-9.382813h-31.886718c-5.179688 0-9.378907 4.199219-9.378907 9.382813 0 5.1875 4.199219 9.386719 9.378907 9.386719zm0 0"/><path d="m27.648438 247.027344h31.886718c5.183594 0 9.382813-4.207032 9.382813-9.386719 0-5.183594-4.199219-9.382813-9.382813-9.382813h-31.886718c-5.179688 0-9.378907 4.199219-9.378907 9.382813 0 5.179687 4.199219 9.386719 9.378907 9.386719zm0 0"/><path d="m27.648438 318.367188h31.886718c5.183594 0 9.382813-4.203126 9.382813-9.382813 0-5.1875-4.199219-9.386719-9.382813-9.386719h-31.886718c-5.179688 0-9.378907 4.199219-9.378907 9.386719 0 5.179687 4.199219 9.382813 9.378907 9.382813zm0 0"/><path d="m290.894531 231.757812c-9.953125 3.421876-7.507812 18.261719 3.054688 18.261719 2.65625 0 3.601562-.859375 14.847656-4.574219l-13.15625 22.785157c-3.621094 6.277343.957031 14.078125 8.117187 14.078125 3.246094 0 6.402344-1.683594 8.140626-4.691406l13.152343-22.789063 2.382813 12.246094c1 5.136719 5.972656 8.402343 11.007812 7.417969 5.085938-.992188 8.40625-5.917969 7.414063-11.007813l-6.507813-33.421875 12.667969-21.933594 6.027344 13.703125c3.261719 7.410157 11.050781 7.167969 10.925781 7.128907 4.726562 0 9.011719-2.792969 10.917969-7.117188l6.082031-13.773438 12.695312 21.988282-6.507812 33.425781c-1.125 5.78125 3.300781 11.179687 9.222656 11.179687 4.398438 0 8.324219-3.113281 9.199219-7.589843l2.386719-12.246094 13.15625 22.785156c2.597656 4.5 8.339844 6.019531 12.816406 3.4375 4.488281-2.59375 6.027344-8.332031 3.433594-12.820312l-13.15625-22.785157c11.132812 3.675782 12.183594 4.570313 14.855468 4.570313 10.554688 0 13.007813-14.835937 3.050782-18.257813l-32.203125-11.078124-12.664063-21.933594 14.890625 1.625c10.3125 1.109375 17.03125-10.558594 10.933594-18.902344l-8.882813-12.15625h25.382813l25.691406 22.347656c3.9375 3.417969 9.859375 2.957032 13.238281-.921875 3.402344-3.914062 2.988282-9.839843-.917968-13.242187l-9.414063-8.183594h26.308594c5.1875 0 9.386719-4.207031 9.386719-9.386719 0-5.183593-4.199219-9.382812-9.386719-9.382812h-26.308594l9.414063-8.191407c3.90625-3.402343 4.320312-9.328124.917968-13.234374-3.398437-3.914063-9.332031-4.328126-13.238281-.925782l-25.691406 22.351563h-25.335937l8.851562-12.078125c6.121094-8.339844-.597656-20.027344-10.902344-18.925782l-14.96875 1.621094 12.695313-21.992187 32.199219-11.074219c4.902343-1.683594 7.507812-7.023438 5.824218-11.921875-1.683594-4.902344-7.027344-7.511719-11.929687-5.820313l-11.796875 4.058594 13.15625-22.789062c2.59375-4.488282 1.054687-10.230469-3.433594-12.816406-4.488281-2.59375-10.230469-1.054688-12.816406 3.429687l-13.15625 22.789063-2.386719-12.25c-.992187-5.082032-5.914063-8.410157-11.003906-7.417969-5.085938.992187-8.410157 5.917969-7.417969 11.007812l6.507812 33.421875-12.664062 21.9375-6.03125-13.707031c-3.265625-7.410156-11.050781-7.167969-10.921875-7.128906-4.726563 0-9.011719 2.792969-10.917969 7.117187l-6.085937 13.773438-12.695313-21.988282 6.507813-33.425781c.992187-5.089843-2.328125-10.015625-7.414063-11.003906-5.085937-.988281-10.015625 2.332031-11.007812 7.417969l-2.386719 12.246094-13.15625-22.789063c-2.585937-4.484375-8.328125-6.023437-12.816406-3.429687-4.488281 2.585937-6.023438 8.328124-3.433594 12.816406l13.15625 22.789062-11.796875-4.058594c-4.902344-1.691406-10.246094.917969-11.929688 5.820313-1.683593 4.898437.921876 10.238281 5.820313 11.921875l32.203125 11.074219 12.664062 21.941406c-.105468-.015625-2.136718-.234375-14.890624-1.632813-10.3125-1.101562-17.03125 10.558594-10.933594 18.90625l8.882812 12.160157h-25.382812l-25.691406-22.351563c-3.90625-3.398437-9.835938-2.988281-13.238282.925782-3.402344 3.90625-2.988281 9.832031.917969 13.234374l9.414063 8.191407h-26.308594c-5.183594 0-9.382813 4.199219-9.382813 9.382812 0 5.179688 4.199219 9.386719 9.382813 9.386719h26.308594l-9.410157 8.183594c-6.570312 5.714844-2.445312 16.464844 6.164063 16.464844 6.113281 0 6.519531-3.601563 31.851562-24.648438h25.332032l-8.859376 12.074219c-6.117187 8.339843.605469 20.035156 10.910157 18.921875l14.964843-1.617188-12.695312 21.988282zm99.722657-53.164062-5.355469-9.28125h10.691406l7.828125 10.714844zm-.019532-37.300781 13.195313-1.425781-7.828125 10.675781h-10.703125zm-21.566406-21.53125 5.335938 12.113281-5.359376 9.28125-5.339843-9.246094zm-.023438 58.933593 5.335938 9.25-5.363281 12.140626-5.332031-12.113282zm-33.25-57.585937c-.515624-.058594-.042968-.007813 0 0zm11.636719 20.148437 5.355469 9.285157h-10.6875l-7.832031-10.722657zm-13.171875 38.726563 7.824219-10.671875h10.703125l-5.335938 9.246094zm0 0"/><path d="m623.6875 442.125h-39.277344l16.5625-14.410156c3.914063-3.402344 4.324219-9.328125.925782-13.238282-3.40625-3.910156-9.332032-4.324218-13.242188-.921874l-32.84375 28.570312h-37.289062l13.855468-18.894531c2.945313-4.015625 3.242188-9.402344.753906-13.71875-2.484374-4.316407-7.296874-6.753907-12.246093-6.226563l-23.382813 2.53125 18.675782-32.34375 41.160156-14.160156c4.902344-1.6875 7.507812-7.023438 5.820312-11.925781-1.683594-4.902344-7.023437-7.507813-11.921875-5.820313l-20.761719 7.140625 19.636719-34.019531c2.59375-4.488281 1.054688-10.226562-3.429687-12.816406-4.488282-2.59375-10.230469-1.054688-12.824219 3.429687l-19.636719 34.019531-4.195312-21.546874c-.992188-5.089844-5.914063-8.414063-11.007813-7.417969-5.085937.988281-8.40625 5.917969-7.414062 11l8.320312 42.730469-18.640625 32.285156-9.4375-21.441406c-2.007812-4.558594-6.523437-7.503907-11.503906-7.507813-.003906 0-.003906 0-.007812 0-4.976563 0-9.492188 2.9375-11.503907 7.496094l-9.503906 21.511719-18.675781-32.34375 8.320312-42.730469c.992188-5.082031-2.328125-10.011719-7.417968-11-5.082032-.996094-10.015626 2.328125-11.003907 7.417969l-4.195312 21.546874-19.644531-34.019531c-2.585938-4.484375-8.324219-6.023437-12.816407-3.429687-4.488281 2.589844-6.027343 8.328125-3.433593 12.816406l19.640624 34.019531-20.761718-7.140625c-4.902344-1.6875-10.242188.917969-11.925782 5.820313-1.683593 4.902343.917969 10.238281 5.820313 11.925781l41.164063 14.160156 18.640624 32.285156-23.289062-2.550781c-4.941406-.535156-9.761719 1.894531-12.257812 6.207031-2.496094 4.3125-2.207032 9.695313.734374 13.71875l13.871094 18.992188h-37.335937l-32.839844-28.570312c-3.910156-3.402344-9.839844-2.988282-13.242187.921874-3.402344 3.910157-2.988282 9.835938.921874 13.238282l16.5625 14.410156h-39.277343c-5.183594 0-9.382813 4.199219-9.382813 9.382812 0 5.179688 4.199219 9.386719 9.382813 9.386719h39.277343l-16.566406 14.40625c-6.566406 5.714844-2.441406 16.464844 6.167969 16.464844 6.160156 0 5.761719-3 38.996094-30.871094h37.292969l-13.859376 18.886719c-2.949218 4.015625-3.246093 9.402344-.757812 13.722656 2.492188 4.316406 7.300781 6.75 12.253906 6.222656l23.378906-2.523437-18.671874 32.34375-41.164063 14.160156c-4.902344 1.683594-7.507813 7.019531-5.824219 11.921875 1.6875 4.902344 7.03125 7.511719 11.929688 5.820313l20.761718-7.144531-19.644531 34.019531c-2.589843 4.492187-1.050781 10.230469 3.4375 12.824219 4.46875 2.578124 10.214844 1.074218 12.816407-3.4375l19.640624-34.019532 4.199219 21.550782c.996094 5.132812 5.96875 8.398437 11 7.417968 5.085938-.992187 8.40625-5.917968 7.421875-11.003906l-8.320312-42.730469 18.636718-32.28125 9.433594 21.4375c2.007813 4.558594 6.523438 7.507813 11.503906 7.511719.132813-.039062 8.125.183594 11.519532-7.492188l9.5-21.519531 18.671875 32.34375-8.320313 42.730469c-.988281 5.085938 2.335938 10.011719 7.421875 11.003906.605469.117188 1.207031.175782 1.804688.175782 4.398437 0 8.328125-3.109376 9.199219-7.59375l4.199218-21.546876 19.636719 34.019532c1.738281 3.007812 4.894531 4.691406 8.136719 4.691406 7.152344 0 11.746094-7.796875 8.117187-14.078125l-19.640625-34.015625 20.761719 7.136719c1.007813.351562 2.039063.511719 3.050781.511719 3.894532 0 7.539063-2.441407 8.875-6.332032 1.6875-4.902344-.921875-10.238281-5.824218-11.921875l-41.160157-14.160156-18.640625-32.285156 23.289063 2.546875c4.953125.542968 9.757812-1.890625 12.253906-6.199219 2.496094-4.316406 2.207031-9.703125-.726563-13.726563l-13.878906-18.988281h37.335938c33.089844 27.746094 32.8125 30.871094 39 30.871094 8.605468 0 12.734375-10.746094 6.160156-16.464844l-16.5625-14.40625h39.277344c5.1875 0 9.386718-4.199219 9.386718-9.386719 0-5.183593-4.195312-9.382812-9.382812-9.382812zm-188.992188 34.941406-23.0625 2.492188 13.695313-18.664063h18.703125zm-9.355468-34.941406-13.6875-18.738281 23.019531 2.519531 9.359375 16.21875zm34.910156 65.550781-9.324219-21.1875 9.359375-16.214843 9.339844 16.175781zm.035156-74.9375-9.335937-16.175781 9.375-21.222656 9.320312 21.183594zm25.617188 44.367188-9.363282-16.210938h18.691407l13.6875 18.730469zm9.34375-34.980469h-18.707032l9.335938-16.171875 23.0625-2.496094zm0 0"/></svg>