<svg style="fill: white;" height="512pt" viewBox="0 -92 512 512" width="512pt" xmlns="http://www.w3.org/2000/svg"><path d="m220.152344 268.179688h-190.613282c-16.289062 0-29.539062 13.253906-29.539062 29.539062 0 16.289062 13.25 29.539062 29.539062 29.539062h190.613282c16.289062 0 29.539062-13.25 29.539062-29.539062 0-16.285156-13.25-29.539062-29.539062-29.539062zm0 44.078124h-190.613282c-8.019531 0-14.539062-6.519531-14.539062-14.539062 0-8.015625 6.519531-14.539062 14.539062-14.539062h190.613282c8.019531 0 14.539062 6.523437 14.539062 14.539062 0 8.019531-6.519531 14.539062-14.539062 14.539062zm0 0"/><path d="m152.613281 40.609375h-20.269531v-.570313c7.730469-3.011718 13.222656-10.535156 13.222656-19.316406 0-11.425781-9.292968-20.722656-20.722656-20.722656-11.425781 0-20.722656 9.296875-20.722656 20.722656 0 8.78125 5.492187 16.304688 13.222656 19.316406v.574219h-20.265625v60.453125h55.535156zm-27.765625-25.609375c3.152344 0 5.722656 2.566406 5.722656 5.722656s-2.566406 5.722656-5.722656 5.722656-5.722656-2.566406-5.722656-5.722656 2.566406-5.722656 5.722656-5.722656zm-12.769531 40.613281h5.269531v30.453125h-5.269531zm25.535156 30.453125h-5.269531v-30.453125h5.269531zm0 0"/><path d="m482.460938 268.179688h-190.613282c-16.289062 0-29.539062 13.253906-29.539062 29.539062 0 16.289062 13.25 29.539062 29.539062 29.539062h190.613282c16.289062 0 29.539062-13.25 29.539062-29.539062 0-16.285156-13.25-29.539062-29.539062-29.539062zm0 44.078124h-190.613282c-8.019531 0-14.539062-6.519531-14.539062-14.539062 0-8.015625 6.519531-14.539062 14.539062-14.539062h190.613282c8.019531 0 14.539062 6.523437 14.539062 14.539062 0 8.019531-6.519531 14.539062-14.539062 14.539062zm0 0"/><path d="m414.921875 40.609375h-20.269531v-.570313c7.730468-3.011718 13.222656-10.535156 13.222656-19.316406 0-11.425781-9.292969-20.722656-20.722656-20.722656-11.425782 0-20.722656 9.296875-20.722656 20.722656 0 8.78125 5.492187 16.304688 13.222656 19.316406v.574219h-20.269532v60.453125h55.539063zm-27.769531-25.609375c3.15625 0 5.722656 2.566406 5.722656 5.722656s-2.566406 5.722656-5.722656 5.722656-5.722656-2.566406-5.722656-5.722656 2.566406-5.722656 5.722656-5.722656zm-12.765625 40.613281h5.265625v30.453125h-5.265625zm25.535156 30.453125h-5.269531v-30.453125h5.269531zm0 0"/><path d="m213.492188 181.597656v74.082032h15v-74.082032c0-19.578125-5.882813-38.398437-17.011719-54.425781-10.867188-15.652344-25.953125-27.59375-43.625-34.53125l-5.480469 13.964844c31.050781 12.191406 51.117188 41.628906 51.117188 74.992187zm0 0"/><path d="m36.203125 181.597656c0-33.363281 20.0625-62.800781 51.117187-74.992187l-5.484374-13.964844c-17.671876 6.9375-32.757813 18.878906-43.625 34.53125-11.128907 16.027344-17.011719 34.847656-17.011719 54.425781v74.082032h15.003906zm0 0"/><path d="m475.796875 181.597656v74.082032h15.003906v-74.082032c0-19.578125-5.882812-38.398437-17.011719-54.425781-10.867187-15.652344-25.953124-27.59375-43.625-34.53125l-5.484374 13.964844c31.054687 12.191406 51.117187 41.628906 51.117187 74.992187zm0 0"/><path d="m298.507812 181.597656c0-33.363281 20.066407-62.800781 51.117188-74.992187l-5.480469-13.960938c-17.671875 6.9375-32.757812 18.875-43.625 34.527344-11.128906 16.027344-17.011719 34.847656-17.011719 54.425781v74.082032h15zm0 0"/><path d="m204.878906 252.070312h-15v-70.472656c0-15.371094-6.058594-29.789062-17.066406-40.597656l10.511719-10.703125c13.898437 13.648437 21.554687 31.871094 21.554687 51.300781zm-38.828125-116.757812c-3.59375-2.578125-7.484375-4.734375-11.5625-6.410156l5.691407-13.875c5.15625 2.113281 10.074218 4.839844 14.617187 8.097656zm-19.960937-9.109375c-4.277344-1.011719-8.695313-1.527344-13.128906-1.527344v-15c5.597656 0 11.179687.648438 16.585937 1.933594zm0 0"/><path d="m217.875 305.21875h-15v-15h15zm-25 0h-15v-15h15zm-25 0h-34.914062v-15h34.914062zm0 0"/><path d="m467.1875 252.070312h-15v-70.472656c0-15.375-6.0625-29.792968-17.066406-40.597656l10.507812-10.703125c13.902344 13.648437 21.558594 31.867187 21.558594 51.300781zm-38.832031-116.757812c-3.597657-2.578125-7.484375-4.734375-11.5625-6.410156l5.691406-13.875c5.15625 2.113281 10.070313 4.839844 14.613281 8.097656zm-19.960938-9.109375c-4.273437-1.011719-8.691406-1.527344-13.128906-1.527344v-15c5.601563 0 11.179687.648438 16.589844 1.933594zm0 0"/><path d="m480.183594 305.21875h-15v-15h15zm-25 0h-15v-15h15zm-25 0h-34.917969v-15h34.917969zm0 0" /></svg>