<svg height="496pt" viewBox="0 -56 496 496" width="496pt" xmlns="http://www.w3.org/2000/svg" style="fill: white;"><path d="m488 264h-152v-16h152c4.417969 0 8-3.582031 8-8s-3.582031-8-8-8h-152v-176c0-30.929688-25.070312-56-56-56s-56 25.070312-56 56c0 4.417969 3.582031 8 8 8h32c4.417969 0 8-3.582031 8-8s3.582031-8 8-8 8 3.582031 8 8v24h-88v-24c0-30.929688-25.070312-56-56-56s-56 25.070312-56 56c0 4.417969 3.582031 8 8 8h32c4.417969 0 8-3.582031 8-8s3.582031-8 8-8 8 3.582031 8 8v176h-144c-4.417969 0-8 3.582031-8 8s3.582031 8 8 8h144v16h-144c-4.417969 0-8 3.582031-8 8v104c0 4.417969 3.582031 8 8 8h480c4.417969 0 8-3.582031 8-8v-104c0-4.417969-3.582031-8-8-8zm-208-232c-10.167969.011719-19.230469 6.417969-22.632812 16h-16.566407c4.089844-20.140625 22.773438-33.902344 43.21875-31.835938 20.445313 2.0625 36 19.285157 35.980469 39.835938v208h-16v-32c4.417969 0 8-3.582031 8-8v-24c0-4.417969-3.582031-8-8-8v-16c4.417969 0 8-3.582031 8-8v-24c0-4.417969-3.582031-8-8-8v-16c4.417969 0 8-3.582031 8-8v-24c0-4.417969-3.582031-8-8-8v-24c0-13.253906-10.746094-24-24-24zm-80 232v-32h88v32zm96-112v8h-88v-8zm-8 24v16h-88v-16zm8 32v8h-88v-8zm-88-112h88v8h-88zm80 24v16h-88v-16zm-144-88c-10.167969.011719-19.230469 6.417969-22.632812 16h-16.566407c4.089844-20.140625 22.773438-33.902344 43.21875-31.835938 20.445313 2.0625 36 19.285157 35.980469 39.835938v208h-16v-208c0-13.253906-10.746094-24-24-24zm336 336h-464v-88h464zm0 0"/><path d="m312 336c0 4.417969 3.582031 8 8 8h88c4.417969 0 8-3.582031 8-8s-3.582031-8-8-8h-88c-4.417969 0-8 3.582031-8 8zm0 0"/><path d="m432 344h16c4.417969 0 8-3.582031 8-8s-3.582031-8-8-8h-16c-4.417969 0-8 3.582031-8 8s3.582031 8 8 8zm0 0"/></svg>